<svg width="220mm" height="217mm" version="1.1" viewBox="0 0 210 297" xml:space="preserve" xmlns="http://www.w3.org/2000/svg"><rect x="19.678" y="62.025" width="171.89" height="165.58"/><g transform="translate(-4.0568 17.136)"><path d="m63.165 135.89 0.01729-35.302 0.15493-0.70502c0.51858-2.3598 1.5435-4.2778 3.1381-5.8724 1.812-1.812 4.1922-2.9619 6.7452-3.2586 0.46046-0.05352 11.928-0.06861 41.227-0.05426l40.589 0.01988v70.368l-0.15454 0.76288c-0.48734 2.4057-1.4508 4.2552-3.0952 5.9412-1.5895 1.6298-3.4367 2.6486-5.7813 3.1885l-0.77217 0.17783-82.086 0.0359zm79.868 33.892c4.9184-0.3032 8.8451-3.5254 10.082-8.2734 0.32673-1.2539 0.31091 0.55365 0.31091-35.506v-33.875h-78.963l-0.75575 0.15317c-1.0065 0.20399-1.8398 0.482-2.7409 0.9144-3.1074 1.4911-5.2442 4.2408-6.024 7.7519l-0.14394 0.64804-0.03904 68.177 0.18523 0.0278c0.40176 0.0604 77.103 0.0428 78.088-0.018zm-64.91-7.7654c-1.2026-0.17559-1.7453-0.52988-1.9401-1.2665-0.04568-0.17274-0.08334-2.2094-0.10555-5.7074-0.01899-2.9913-0.0616-6.2395-0.0947-7.2181-0.1022-3.0218 0.04347-5.4196 0.43599-7.1767 0.77639-3.4755 2.6166-5.6654 5.6317-6.7017 0.76846-0.26412 1.6694-0.4213 2.8084-0.48995 0.5897-0.0355 1.087-0.0794 1.1051-0.0975 0.01809-0.0181-0.1351-0.40407-0.3404-0.85775-0.46858-1.0354-0.6817-1.7203-0.81526-2.6197-0.16018-1.0788-0.11481-2.8236 0.10263-3.9461 0.43368-2.2388 1.8003-4.0545 3.7189-4.9409 2.6899-1.2428 5.968-0.67301 8.0383 1.3973 1.3066 1.3066 1.8708 2.7707 1.9809 5.1409 0.02281 0.4907 0.07048 0.91011 0.10593 0.93202 0.07713 0.0477 6.6952-6.5449 8.3145-8.2824 1.215-1.3037 1.7163-1.7322 2.4095-2.0591 0.38938-0.18369 0.51729-0.20831 1.211-0.23304 0.44487-0.0159 0.93549 6e-3 1.1506 0.0502 0.49896 0.10358 1.2531 0.47168 1.8336 0.89499 0.2666 0.19441 2.5132 2.3782 5.1546 5.0107 2.5751 2.5664 4.6932 4.6529 4.7069 4.6368 0.0137-0.0161 0.0595-0.54301 0.10177-1.1708 0.11479-1.7046 0.38429-2.6935 1.0289-3.7754 0.28959-0.48601 1.2446-1.4938 1.7723-1.8704 0.80395-0.57368 1.9524-1.0494 2.9866-1.2372 0.55018-0.0999 1.8457-0.10159 2.4143-3e-3 1.4467 0.25053 2.8169 0.9837 3.7824 2.0239 1.4247 1.5349 2.0106 3.5076 1.9025 6.4066-0.057 1.5288-0.27484 2.4174-0.92642 3.7785-0.18448 0.38535-0.32131 0.71474-0.30407 0.73198 0.0172 0.0172 0.51015 0.0586 1.0954 0.0919 1.2751 0.0725 1.9482 0.19241 2.8578 0.509 2.8771 1.0014 4.6459 3.0022 5.492 6.2121 0.45861 1.7399 0.65001 4.0621 0.57203 6.9402-0.028 1.034-0.0701 4.5088-0.0935 7.7217l-0.0426 5.8416-0.1713 0.33573c-0.22044 0.43206-0.63764 0.71735-1.2788 0.87447-0.43641 0.10694-0.66067 0.11332-2.1706 0.0617-1.7192-0.0588-14.48-0.0767-17.698-0.0248-1.6325 0.0263-1.8125 0.0178-2.1814-0.10307-0.51123-0.16748-0.89047-0.53551-1.0751-1.0433-0.15253-0.41946-0.14853 0.16391-0.0624-9.0982 0.0264-2.8436 0.0473-5.5932 0.0463-6.1102-3e-3 -1.7374-0.22534-2.2508-1.9317-4.4652-0.86311-1.1201-1.5779-2.1582-4.8829-7.092-2.5561-3.8158-2.8663-4.3166-3.2454-5.2395-0.13419-0.32671-0.26617-0.61766-0.29329-0.64657-0.0965-0.10286-0.26789 0.0346-0.34504 0.27672-0.15393 0.48305-0.48811 1.197-0.88516 1.8909-0.38583 0.67436-0.66182 1.0789-2.8172 4.1294-0.52187 0.7386-1.8549 2.7018-2.9623 4.3627s-2.2095 3.2908-2.4491 3.622c-0.81086 1.1207-0.97765 1.5257-1.1223 2.7249-0.0558 0.46228-0.28519 0.80749-0.70279 1.0575-0.67476 0.40403-1.2126 0.24575-1.5662-0.46086-0.25313-0.50595-0.37688-1.0583-0.37977-1.6949-0.0059-1.3002 0.5272-2.3268 2.5502-4.9113 0.31798-0.40623 0.86257-1.1465 1.2102-1.6451 0.34764-0.49855 1.3885-1.964 2.313-3.2566 3.2403-4.5302 4.4441-6.703 5.1949-9.3767 0.34703-1.2359 0.58577-3.0116 0.4049-3.0116-0.12552 0-10.229 10.13-11.264 11.294-1.4192 1.5955-2.266 2.3516-3.0639 2.7357-0.72582 0.34942-0.97012 0.36682-3.9489 0.28119-5.0141-0.14413-6.191-0.0997-7.7353 0.29203-2.3545 0.59728-4.1029 2.3134-4.6016 4.5165-0.19525 0.86262-0.2077 1.4646-0.20028 9.6841 0.0059 6.5003 0.02612 8.4363 0.08866 8.4761 0.04458 0.0283 0.87052 0.052 1.8354 0.0525 1.4705 8.6e-4 1.7677-0.0151 1.8371-0.0987 0.06478-0.078 0.07812-1.7657 0.06145-7.7721-0.02404-8.6595-0.04984-8.1867 0.47545-8.712 0.29275-0.29275 0.55777-0.37139 1.0818-0.32104 0.45808 0.044 0.78186 0.31247 1.0008 0.82974l0.16786 0.39666 0.01842 7.7859c0.01433 6.0565 0.0367 7.7975 0.10072 7.8382 0.04526 0.0288 2.8384 0.0527 6.207 0.0533 5.7654 9.7e-4 6.1283-6e-3 6.1862-0.11648 0.03742-0.0714 0.03629-0.53604-0.0029-1.1848-0.11012-1.8233 0.10184-2.6735 0.7695-3.0862 0.71235-0.44041 1.5587-0.14587 1.9023 0.66203 0.13282 0.31226 0.25556 2.7058 0.21176 4.1294-0.0693 2.251-0.85188 2.6486-4.7048 2.3902-2.2274-0.1494-12.788-0.15428-14.986-7e-3 -1.3753 0.0922-2.5929 0.11599-2.988 0.0583zm58.674-2.9323c0.0506-0.061 0.0789-1.6165 0.0924-5.0863 0.0215-5.4918 5e-3 -5.263 0.43199-5.8235 0.56304-0.73818 1.7413-0.47845 2.0719 0.45669 0.19302 0.54608 0.23099 1.5279 0.23274 6.0182 2e-3 3.9868 0.0126 4.4454 0.10794 4.482 0.17527 0.0673 3.4773 0.0443 3.5868-0.025 0.0887-0.0561 0.10064-1.0933 0.10002-8.6775l-7e-4 -8.6138-0.15497-0.70503c-0.0852-0.38777-0.24352-0.92632-0.35176-1.1968-0.68771-1.7184-2.1922-2.976-4.1839-3.4972-1.476-0.38622-2.8166-0.43617-7.5956-0.28301-3.2212 0.10324-3.3584 0.0934-4.1371-0.29818-0.83149-0.41808-1.6321-1.151-3.333-3.0509-0.44632-0.49855-3.0966-3.1877-5.8895-5.9759-4.7827-4.7747-5.0837-5.0619-5.1756-4.9392-0.10169 0.13583-0.12099 0.35713-0.0999 1.1454 0.0407 1.5212 0.93881 3.8559 2.4538 6.3788 1.0628 1.7699 4.7564 7.1947 8.0233 11.784 0.32861 0.46162 0.73596 1.1112 0.90523 1.4436 0.43989 0.86375 0.52198 1.3384 0.47596 2.7521-0.0205 0.62827-0.0549 3.9464-0.0765 7.3737-0.0303 4.7946-0.0208 6.2538 0.0412 6.3285 0.11461 0.1381 12.361 0.14711 12.475 9e-3zm0.90935-14.343c-0.93856-0.42622-0.9844-1.9081-0.0727-2.3495 0.88185-0.42689 1.749 0.0791 1.8454 1.0768 0.0412 0.42638-0.0793 0.74457-0.38739 1.0229-0.41952 0.37901-0.90707 0.4669-1.3853 0.24974zm-45.015-11.431c0.58705-0.13808 1.3794-0.58076 1.8348-1.0251 1.5133-1.4766 1.9524-4.2565 1.0297-6.5197-0.53449-1.311-1.4795-2.2472-2.625-2.6003-0.70051-0.21597-1.754-0.19891-2.4924 0.0404-1.3999 0.45362-2.4568 1.6596-2.8917 3.2995-0.195 0.7354-0.17914 2.6207 0.02842 3.3799 0.53397 1.953 1.7844 3.2403 3.4057 3.5061 0.39021 0.064 1.2723 0.0224 1.7105-0.0807zm39.141-0.0928c1.4238-0.44976 2.4385-1.6208 2.8665-3.3082 0.51513-2.0307 0.011-4.3437-1.2345-5.664-0.81767-0.86678-1.6106-1.2167-2.7674-1.2213-0.82542-3e-3 -1.2682 0.0884-1.9136 0.39603-1.7418 0.83023-2.7278 2.9065-2.5179 5.3015 0.22576 2.5753 1.5953 4.3157 3.6929 4.6929 0.37309 0.0671 1.3696-0.0376 1.874-0.197zm-32.879 18.846c-0.24609-0.0709-0.59162-0.3841-0.71832-0.65111-0.14958-0.31522-0.15968-0.93738-0.01956-1.2055 0.13678-0.26171 0.43734-0.54359 0.67559-0.63361 0.26712-0.10093 0.82534-0.0886 1.0397 0.0229 0.6232 0.32425 0.87405 1.2055 0.52891 1.8582-0.25989 0.49146-0.9484 0.76987-1.5063 0.60912zm20.32-40.669c-0.56938-0.17922-1.0002-0.85694-0.90758-1.4277 0.16506-1.0172 2.5753-3.6517 3.9844-4.3551 0.43156-0.21546 0.52624-0.23803 0.88864-0.21181 0.32446 0.0235 0.45527 0.0695 0.65372 0.23014 0.54754 0.44316 0.67305 1.1142 0.33188 1.7743-0.63859 1.2355-2.764 3.3773-3.8345 3.8641-0.45882 0.20864-0.7499 0.24151-1.1166 0.1261zm-17.382-0.31563c-0.51404-0.18062-0.98659-0.48466-1.6786-1.08-0.76304-0.65643-1.7017-1.7711-2.1508-2.5541-0.53083-0.92553 0.0049-2.0616 0.96949-2.056 0.54131 3e-3 1.3587 0.44706 2.2285 1.2103 0.94219 0.82676 2.2036 2.3706 2.3765 2.9086 0.19102 0.5944-0.0752 1.314-0.57355 1.5505-0.39048 0.1853-0.68816 0.19056-1.1715 0.0207zm8.8124-3.0629c-0.23043-0.0664-0.6064-0.39216-0.73138-0.63372-0.34537-0.66755-0.46869-2.1528-0.3627-4.3687 0.0409-0.8549 0.10191-2.204 0.13559-2.998 0.0337-0.794 0.0915-1.5429 0.12841-1.6642 0.1988-0.65298 0.62136-0.98537 1.2547-0.98698 0.46385-0.0012 0.76885 0.15966 1.0326 0.54451 0.44034 0.64263 0.52646 1.8435 0.4159 5.7997-0.0449 1.6064-0.11235 3.0772-0.1499 3.2684-0.16201 0.82464-0.90739 1.2741-1.7232 1.039z" fill="#07f2f4"/><path d="m63.233 172.82c-0.06055-0.0244-0.08393-0.25662-0.08393-0.83353v-0.79966l82.085-0.0359 0.77217-0.17783c2.3446-0.53996 4.1918-1.5587 5.7813-3.1885 1.6132-1.654 2.5858-3.491 3.0472-5.7552 0.0893-0.43828 0.18179-0.81597 0.20549-0.83932 0.0656-0.0646-0.0331 1.2889-0.14375 1.9719-0.6035 3.7244-2.9354 6.8795-6.3052 8.531-1.2851 0.62979-2.5814 0.97881-4.0904 1.1014-0.87855 0.0713-81.092 0.0967-81.268 0.0257zm14.436-9.587c-1.144-0.26228-1.5664-0.81511-1.5565-2.0374 0.0046-0.57212 0.0068-0.57964 0.09588-0.33721 0.39599 1.0773 1.4856 1.3262 4.8225 1.1018 2.3118-0.15549 12.748-0.1557 15.065-3e-4 2.3664 0.15871 3.417 0.0524 4.0187-0.4065 0.26217-0.19996 0.40275-0.4381 0.57651-0.97654l0.11917-0.3693 4e-3 0.55065c4e-3 0.65382-0.0912 1.1512-0.30025 1.5644-0.42367 0.83744-1.2101 1.0662-3.322 0.96622-1.4702-0.0696-15.332-0.075-17.559-7e-3 -1.2327 0.0377-1.629 0.0278-1.9639-0.0489zm45.76 0.0294c-1.4202-0.17478-1.9153-0.75612-1.9726-2.3163-0.0256-0.69685-0.0221-0.72152 0.0614-0.43644 0.22358 0.76346 0.52955 1.1058 1.1787 1.319 0.34119 0.11204 0.55848 0.1217 2.1587 0.0959 3.2183-0.0518 15.979-0.034 17.698 0.0248 1.5099 0.0516 1.7342 0.0452 2.1706-0.0617 0.61037-0.14958 1.0605-0.44588 1.2474-0.82105 0.22701-0.45579 0.25515-0.42403 0.2204 0.24873-0.049 0.94919-0.25077 1.3361-0.85703 1.6439-0.55646 0.28245-1.0005 0.33951-2.3837 0.30632-2.0078-0.0482-17.155-0.0415-18.163 8e-3 -0.49856 0.0245-1.1101 0.0195-1.359-0.0112zm-25.489-4.4314c0-0.0923 0.01524-0.13009 0.03387-0.0839 0.01863 0.0462 0.01863 0.1217 0 0.16786-0.01863 0.0462-0.03387 8e-3 -0.03387-0.0839zm1.028-5.5747c-0.26067-0.0791-0.6166-0.42682-0.74059-0.72357-0.09683-0.23176-0.13012-0.78799-0.05834-0.97504 0.02889-0.0753 0.10813-0.0299 0.32303 0.18501 0.27733 0.27733 0.51203 0.37377 0.90967 0.37377 0.25853 0 0.84624-0.31133 0.98367-0.52107 0.11039-0.16848 0.12026-0.17123 0.16877-0.0472 0.0768 0.19644 0.0709 0.73467-0.0105 0.94994-0.0858 0.22705-0.36877 0.53716-0.60092 0.65854-0.23455 0.12262-0.73152 0.17339-0.97484 0.0996zm-0.14367-5.8321c-0.42498-0.26709-0.72611-1.0318-0.80711-2.0497-0.03141-0.3947-0.02226-0.51863 0.03566-0.48284 0.04286 0.0265 0.07863 0.11436 0.0795 0.19527 8.72e-4 0.0809 0.09907 0.34352 0.21822 0.58356 0.38203 0.76966 0.8971 0.93779 1.5942 0.52038 0.4176-0.25005 0.64701-0.59526 0.70279-1.0575 0.14469-1.1993 0.31148-1.6042 1.1223-2.7249 0.23965-0.33122 1.3418-1.9611 2.4491-3.622s2.4404-3.6241 2.9623-4.3627c2.1554-3.0506 2.4314-3.4551 2.8172-4.1294 0.39705-0.69396 0.73123-1.4079 0.88516-1.8909 0.0771-0.24212 0.24855-0.37958 0.34504-0.27672 0.0271 0.0289 0.1591 0.31986 0.29329 0.64657 0.3791 0.92298 0.68925 1.4237 3.2454 5.2395 3.305 4.9337 4.0198 5.9719 4.8829 7.092 1.5764 2.0457 1.8487 2.6102 1.9439 4.0287l0.0383 0.57073-0.12613-0.42293c-0.26896-0.9019-0.64754-1.514-2.2155-3.5824-0.73229-0.96599-6.6766-9.8777-7.1846-10.771-0.18939-0.3331-0.4534-0.8763-0.58669-1.2071-0.34371-0.85302-0.43638-0.87256-0.69769-0.14714-0.39672 1.1014-1.1598 2.3722-2.8519 4.7495-1.1353 1.5951-2.48 3.5825-4.2475 6.2781-0.77491 1.1818-1.6126 2.4357-1.8615 2.7865-0.88733 1.2506-1.0769 1.6653-1.1762 2.5729-0.081 0.74001-0.25284 1.0746-0.69123 1.3454-0.41744 0.25792-0.87378 0.30409-1.1694 0.11831zm38.956-1.633c-0.51279-0.17842-0.90453-0.87987-0.80065-1.4336l0.0461-0.24574 0.24299 0.27546c0.54186 0.61429 1.2857 0.62744 1.8799 0.0332 0.16194-0.16193 0.30556-0.29442 0.31917-0.29442 0.0136 0 0.0241 0.14352 0.0233 0.31894-3e-3 0.60719-0.43644 1.2027-0.98709 1.3556-0.30577 0.0849-0.45803 0.0829-0.72365-0.01zm-58.885-3.5116c0.11226-2.9147 1.9097-5.1188 4.7652-5.8431 1.5443-0.39173 2.7212-0.43616 7.7353-0.29203 2.9788 0.0856 3.2231 0.0682 3.9489-0.28119 0.79787-0.3841 1.6447-1.1402 3.0639-2.7357 1.0357-1.1643 11.138-11.294 11.264-11.294 0.0733 0 0.0857 0.0855 0.0573 0.39785l-0.0361 0.39786-3.6888 3.7148c-5.3197 5.3572-6.5804 6.6551-7.7914 8.0212-1.4936 1.6849-2.3451 2.3815-3.3263 2.7211-0.52512 0.18176-1.1688 0.19004-4.9143 0.0633-1.5141-0.0513-3.1678-0.0734-3.6748-0.0492-1.5884 0.0758-3.0655 0.40181-4.0293 0.88926-1.2214 0.61773-2.2704 1.6915-2.8056 2.8718-0.17627 0.38876-0.48896 1.4403-0.56138 1.8878-0.01793 0.11079-0.02096-0.10071-0.0067-0.47001zm64.369-0.16325c-0.52027-2.5222-2.3325-4.2397-5.0632-4.7988-1.3204-0.27033-3.647-0.30128-8.0418-0.107-1.6991 0.0751-2.3694 0.0217-2.9321-0.23348-0.89231-0.40469-1.8056-1.2137-3.2994-2.9228-0.50031-0.57242-2.1809-2.3248-3.7347-3.8943-7.5044-7.5801-7.4748-7.5509-7.579-7.4644-0.0776 0.0644-0.10522 0.0636-0.13058-4e-3 -0.0517-0.13775 0.0525-0.78643 0.14052-0.87444 0.0627-0.0627 1.208 1.0456 5.1539 4.9872 2.7903 2.7872 5.4385 5.4756 5.8848 5.9742 1.7009 1.8999 2.5015 2.6328 3.333 3.0509 0.7787 0.39153 0.91588 0.40142 4.1371 0.29818 4.779-0.15316 6.1197-0.10321 7.5956 0.28301 1.9917 0.52119 3.4962 1.7787 4.1839 3.4972 0.25266 0.63136 0.48637 1.7791 0.46086 2.2632l-0.0199 0.37719zm-17.061-13.973c-3e-3 -0.0933 0.0256-0.42566 0.0639-0.7386 0.23502-1.9223 1.1187-3.3239 2.5155-3.9897 0.64544-0.30765 1.0882-0.39929 1.9136-0.39603 1.1568 5e-3 1.9498 0.3545 2.7674 1.2213 0.71926 0.76245 1.2367 1.9547 1.3886 3.1998 0.10779 0.88331 0.0867 0.94684-0.0892 0.26858-0.63382-2.4441-2.0955-3.7969-4.0977-3.7926-2.1908 5e-3 -3.784 1.4205-4.3332 3.8508-0.0679 0.30031-0.12593 0.46969-0.12905 0.37639zm-30.221-0.0646c0-0.19902-0.39433-1.3954-0.58675-1.7802-0.45925-0.91832-1.1501-1.638-1.9312-2.0115-0.57469-0.27488-1.0217-0.37249-1.6987-0.37096-1.2999 3e-3 -2.4015 0.51553-3.2227 1.4997-0.36107 0.43269-0.76541 1.247-0.98844 1.9907l-0.17116 0.57073 0.03344-0.57073c0.06539-1.116 0.55711-2.3061 1.2678-3.0686 0.84811-0.90983 1.7678-1.3094 3.034-1.3183 0.57884-4e-3 0.84087 0.0263 1.2114 0.14059 1.7036 0.52523 2.8681 2.2498 3.0825 4.5652 0.02479 0.26774 0.02814 0.4868 0.0074 0.4868-0.0207 0-0.03764-0.0601-0.03764-0.13349zm23.066-16c-0.44204-0.25037-0.76883-0.88648-0.66596-1.2964 0.041-0.1635 0.0506-0.16803 0.11147-0.0529 0.15981 0.30224 0.49574 0.57141 0.83689 0.67059 0.31896 0.0927 0.38908 0.0924 0.7178-3e-3 0.58237-0.1693 1.3348-0.72273 2.3288-1.7128 0.91997-0.91639 1.5122-1.6435 1.8251-2.2407l0.1694-0.32335 0.0452 0.20595c0.0982 0.44703-0.28704 1.1796-1.1852 2.2537-0.9207 1.1011-2.1588 2.1753-2.9098 2.5244-0.38074 0.17702-0.93596 0.16595-1.2738-0.0254zm-16.865-0.12059c-0.92199-0.17373-2.46-1.4463-3.605-2.9828-0.51907-0.69656-0.7152-1.1185-0.71603-1.5404l-6.56e-4 -0.33178 0.23994 0.39893c0.98374 1.6356 2.7199 3.2445 3.8856 3.601 0.40534 0.12396 0.50517 0.13212 0.76509 0.0626 0.36171-0.0967 0.62182-0.27306 0.74651-0.50605 0.14937-0.27911 0.22367-0.20457 0.19083 0.19144-0.0645 0.77717-0.71594 1.256-1.5063 1.107zm8.8053-3.115c-0.0369-0.0131-0.14969-0.0421-0.25057-0.0643-0.24288-0.0535-0.63373-0.4031-0.78663-0.70357-0.0675-0.13275-0.15641-0.45866-0.19748-0.72425-0.0988-0.63875-0.0864-0.87913 0.0245-0.4763 0.19723 0.71639 0.60168 1.1121 1.1999 1.1738 0.70482 0.0727 1.2014-0.2522 1.4282-0.93454l0.0955-0.28726-0.0302 0.47781c-0.0451 0.71413-0.28139 1.1796-0.71097 1.4007-0.17847 0.0918-0.66002 0.17787-0.77217 0.13793z" fill="#b9138c"/><path d="m23.734 127.68v-82.79h171.89v165.58h-171.89zm120.77 45.119c1.5091-0.12254 2.8054-0.47156 4.0904-1.1014 3.6832-1.8051 6.0986-5.3845 6.4136-9.5046 0.0468-0.61139 0.0633-12.392 0.0508-36.191l-0.0185-35.285-40.589-0.01988c-29.299-0.01435-40.767 7.44e-4 -41.227 0.05426-2.553 0.29674-4.9332 1.4466-6.7452 3.2586-1.5945 1.5945-2.6195 3.5126-3.1381 5.8724l-0.15493 0.70503-0.01728 36.086c-0.01385 28.923-5.2e-4 36.097 0.06714 36.14 0.13224 0.0839 80.232 0.0696 81.269-0.0145zm-79.557-2.9997-0.18523-0.0278 0.03904-68.177 0.14394-0.64804c1.0043-4.5218 4.2758-7.7564 8.765-8.6663l0.75575-0.15317h78.963v33.875c0 27.619-0.0163 33.978-0.0881 34.432-0.50225 3.1772-2.2508 5.8875-4.9143 7.6172-1.6137 1.048-3.3478 1.6046-5.3909 1.7306-0.98521 0.0607-77.687 0.0784-78.088 0.018zm23.619-6.5622c4.0623-1e-3 7.945 0.0241 8.6282 0.0565 2.1119 0.1 2.8983-0.12878 3.322-0.96622 0.25572-0.50545 0.30415-0.92197 0.299-2.5716-8e-3 -2.4476-0.0877-3.9936-0.22322-4.3108-0.2361-0.55254-0.67279-0.85851-1.2253-0.85851-0.65498 0-1.1481 0.44004-1.376 1.2278-0.05992 0.20712-0.08804 0.77728-0.08942 1.8129l-2e-3 1.5108-6.0767 0.0185c-3.3422 0.0102-6.1439 2e-3 -6.2261-0.0177l-0.14946-0.0361-0.03682-15.61-0.16786-0.39666c-0.21891-0.51727-0.54269-0.78572-1.0008-0.82974-0.52407-0.0503-0.7891 0.0283-1.0818 0.32104-0.52529 0.52529-0.49949 0.0525-0.47545 8.712 0.01667 6.0064 0.0033 7.694-0.06145 7.7721-0.06936 0.0836-0.36662 0.0995-1.8371 0.0987-0.96489-5.7e-4 -1.7905-0.024-1.8346-0.052-0.10473-0.0666-0.13143-15.821-0.02782-16.414 0.26092-1.4939 0.81049-2.6086 1.7485-3.5466 1.0012-1.0012 2.219-1.5825 3.927-1.8745 1.1839-0.2024 2.3593-0.23044 5.3773-0.12828 3.7456 0.12679 4.3892 0.11851 4.9143-0.0633 0.98119-0.33961 1.8328-1.0362 3.3263-2.7211 1.2066-1.3612 2.4561-2.6477 7.7574-7.9875 2.01-2.0246 3.6704-3.6652 3.6898-3.6459 0.0597 0.0597-0.18225 1.3617-0.3915 2.1069-0.75272 2.6807-1.9538 4.8493-5.1966 9.3831-0.92453 1.2926-1.9654 2.758-2.313 3.2566-0.34764 0.49856-0.89223 1.2388-1.2102 1.6451-1.2241 1.5638-1.6622 2.2045-2.08 3.0417-0.39436 0.79031-0.47173 1.1783-0.46587 2.3362 0.0059 1.162 0.11737 1.8597 0.37958 2.3755 0.35818 0.70453 0.92166 0.85447 1.6108 0.42865 0.43839-0.27087 0.61027-0.60544 0.69123-1.3454 0.0993-0.90765 0.28882-1.3223 1.1762-2.5729 0.24892-0.35084 1.0866-1.6048 1.8615-2.7865 1.7676-2.6956 3.1122-4.683 4.2475-6.2781 1.6921-2.3773 2.4551-3.6481 2.8519-4.7495 0.26131-0.72542 0.35398-0.70588 0.69769 0.14714 0.13329 0.33079 0.3973 0.87399 0.58669 1.2071 0.50795 0.89338 6.4523 9.8051 7.1846 10.771 1.6167 2.1327 2.0302 2.818 2.2355 3.7056 0.086 0.37162 0.0916 0.68543 0.0367 2.0479-0.057 1.4153-0.10033 6.9745-0.0969 12.419 1e-3 1.7465 7e-3 1.8277 0.15997 2.2158 0.40764 1.0341 1.3265 1.3281 3.6648 1.1726 0.95515-0.0635 10.895-0.0538 18.129 0.0176 1.5069 0.0149 2.2909-0.29989 2.6323-1.0569 0.11249-0.24945 0.12173-0.63096 0.13583-5.6057 8e-3 -2.9359 0.0461-6.2747 0.084-7.4196 0.12075-3.6498 0.0711-5.442-0.20366-7.3524-0.46148-3.2087-1.7269-5.5197-3.7563-6.86-0.73742-0.48703-1.2268-0.72881-2.0671-1.0213-0.90953-0.31659-1.5826-0.43647-2.8578-0.509-0.5852-0.0333-1.0782-0.0747-1.0956-0.0921-0.0174-0.0174 0.11982-0.34433 0.30489-0.72656 0.64166-1.3252 0.86883-2.2536 0.92584-3.7836 0.10803-2.899-0.4778-4.8717-1.9025-6.4066-0.96552-1.0402-2.3357-1.7734-3.7824-2.0239-0.56853-0.0985-1.8641-0.0968-2.4143 3e-3 -1.0342 0.1878-2.1827 0.66357-2.9866 1.2372-0.52774 0.3766-1.4827 1.3844-1.7723 1.8704-0.64465 1.0819-0.91415 2.0707-1.0289 3.7754-0.0423 0.62781-0.0881 1.1547-0.10177 1.1708-0.0137 0.0161-2.1318-2.0704-4.7069-4.6368-2.6414-2.6324-4.888-4.8163-5.1546-5.0107-0.58051-0.42331-1.3346-0.79141-1.8336-0.89499-0.2151-0.0446-0.70572-0.0661-1.1506-0.0502-0.69366 0.0247-0.82157 0.0493-1.211 0.23304-0.69314 0.32698-1.1945 0.75542-2.4095 2.0591-1.6193 1.7375-8.2374 8.33-8.3145 8.2824-0.03545-0.0219-0.08312-0.44132-0.10593-0.93202-0.11017-2.3702-0.67433-3.8343-1.9809-5.1409-2.0703-2.0703-5.3483-2.6401-8.0383-1.3973-1.9186 0.88645-3.2853 2.7022-3.7189 4.9409-0.21743 1.1224-0.26281 2.8673-0.10263 3.9461 0.13355 0.89943 0.34667 1.5843 0.81526 2.6197 0.20531 0.45368 0.35849 0.83966 0.3404 0.85775-0.01808 0.0181-0.51537 0.062-1.1051 0.0975-1.139 0.0686-2.04 0.22583-2.8084 0.48995-2.5738 0.88465-4.3112 2.6343-5.2263 5.2632-0.71009 2.04-0.97348 4.7397-0.84054 8.6152 0.03357 0.97864 0.07678 4.5138 0.09603 7.856 0.03751 6.5133 0.03432 6.4546 0.37677 6.9178 0.18525 0.25057 0.70076 0.52245 1.2135 0.64 0.33492 0.0768 0.73121 0.0867 1.9639 0.0489 0.84939-0.026 4.868-0.0483 8.9303-0.0496zm35.758-4.1626c-0.062-0.0747-0.0715-1.5339-0.0412-6.3285 0.0216-3.4273 0.0561-6.7455 0.0765-7.3737 0.046-1.4137-0.0361-1.8884-0.47596-2.7521-0.16927-0.33237-0.57662-0.982-0.90523-1.4436-1.7277-2.4271-4.6777-6.6863-6.1388-8.8632-2.1132-3.1485-3.1194-4.9487-3.7532-6.7145-0.511-1.4239-0.71967-2.6901-0.47657-2.8919 0.0926-0.0769 0.40574 0.21366 2.434 2.2581 6.5962 6.6487 8.0531 8.1394 8.8875 9.0941 1.4938 1.7091 2.407 2.5181 3.2994 2.9228 0.56271 0.25521 1.2331 0.30858 2.9321 0.23348 2.8188-0.12462 6.0225-0.15891 6.8153-0.073 2.2466 0.24356 3.6614 0.85326 4.8133 2.0743 0.7828 0.82981 1.2538 1.8033 1.5313 3.1652 0.1348 0.6615 0.13724 0.8381 0.11949 8.6677-0.0159 7.0181-0.0304 8.0002-0.11884 8.0561-0.1095 0.0692-3.4116 0.0922-3.5868 0.025-0.0953-0.0366-0.10638-0.49512-0.10794-4.482-2e-3 -4.4903-0.0397-5.4721-0.23274-6.0182-0.33055-0.93514-1.5088-1.1949-2.0719-0.45669-0.42748 0.56046-0.41051 0.33166-0.43199 5.8235-0.0136 3.4698-0.0418 5.0253-0.0924 5.0863-0.11447 0.13793-12.361 0.12892-12.475-9e-3zm14.186-13.27c0.34348-0.0954 0.75234-0.47662 0.88149-0.82196 0.0782-0.20903 0.10028-0.47908 0.0862-1.0533-0.0221-0.90357-0.12389-1.1831-0.54066-1.485-0.33976-0.24613-0.85851-0.26721-1.3012-0.0529-0.48019 0.23246-0.78032 0.90411-0.6366 1.4246 0.0442 0.16001 0.0439 0.33037-8.5e-4 0.50665-0.14127 0.55656 0.24753 1.2861 0.78506 1.4732 0.26615 0.0926 0.41788 0.0944 0.72657 9e-3zm-47.527-12.413c-0.41144-0.0675-0.9361-0.26521-1.3551-0.51077-1.2322-0.7221-2.1208-2.3783-2.2184-4.1348-0.03133-0.5636-0.01315-0.7277 0.14138-1.2758 0.64306-2.2807 2.1445-3.544 4.2178-3.5486 0.67706-2e-3 1.124 0.0961 1.6987 0.37096 1.0704 0.51196 1.8261 1.4927 2.3048 2.991 0.26948 0.84347 0.30849 1.1856 0.2137 1.8742-0.24708 1.795-1.1342 3.1829-2.4385 3.815-0.30248 0.14659-0.6867 0.29869-0.85383 0.338-0.43818 0.10306-1.3203 0.14467-1.7105 0.0807zm38.978 0.0234c-1.6916-0.30425-2.91-1.4845-3.4591-3.3507-0.25761-0.87566-0.29611-1.7728-0.108-2.5166 0.18151-0.71778 0.64176-1.6633 1.0615-2.1806 0.4047-0.49882 1.1818-1.0331 1.8005-1.2379 0.64507-0.21354 1.7159-0.26693 2.3165-0.11549 1.6404 0.41362 2.8165 1.8492 3.2553 3.9732 0.0909 0.43998 0.0975 0.62766 0.038 1.0747-0.34831 2.6177-1.8858 4.2325-4.144 4.3522-0.32616 0.0173-0.66855 0.0179-0.76087 1e-3zm-30.008 19.744c0.27162-0.14046 0.58696-0.53925 0.6369-0.80544 0.0248-0.13235 0.0252-0.38227 8.4e-4 -0.55538-0.0522-0.37096-0.0523-0.34525 1e-3 -0.8276 0.0938-0.84673-0.40311-1.4679-1.1743-1.4679-0.41005 0-0.65403 0.0873-0.90338 0.32321-0.26066 0.24663-0.3829 0.50148-0.38422 0.80106-0.0056 1.2743 0.01786 1.7123 0.10266 1.9153 0.12228 0.29266 0.47951 0.64037 0.73867 0.71898 0.24509 0.0743 0.73992 0.0229 0.98166-0.10215zm20.373-41.05c1.1309-0.5258 3.2855-2.6902 3.8811-3.8988 0.20076-0.40737 0.21387-0.47851 0.21097-1.1452-4e-3 -0.81814-0.10487-1.0963-0.52238-1.4342-0.19845-0.16062-0.32926-0.20667-0.65372-0.23014-0.3621-0.0262-0.45744-4e-3 -0.88864 0.21119-0.93429 0.46524-2.6083 2.0597-3.4677 3.3028-0.47134 0.68182-0.5339 0.89037-0.50801 1.6935 0.0287 0.89023 0.19359 1.2284 0.7397 1.5169 0.27682 0.14627 0.87667 0.13832 1.2086-0.016zm-17.222-0.28746c0.12989-0.071 0.31118-0.2385 0.40287-0.3723 0.14957-0.21824 0.16837-0.31971 0.18282-0.98681 9e-3 -0.41131-0.0174-0.84857-0.0589-0.97857-0.23955-0.75101-2.1006-2.8056-3.2058-3.5391-0.83115-0.55168-1.439-0.67653-1.958-0.40212-0.47184 0.24952-0.60177 0.57042-0.60097 1.4842 7.76e-4 0.88117 0.0819 1.1025 0.71603 1.9534 0.85754 1.1508 2.104 2.313 2.9255 2.7276 0.67129 0.33887 1.125 0.37117 1.5963 0.11365zm8.6606-3.1114c0.23949-0.12327 0.44559-0.36167 0.5799-0.67082 0.0961-0.22107 0.12463-0.58324 0.16413-2.0806 0.0263-0.99711 0.0703-2.6287 0.0978-3.6258 0.0522-1.8948-0.0271-3.4361-0.20306-3.9472-0.1231-0.35754-0.35193-0.67082-0.62803-0.85981-0.18656-0.1277-0.32234-0.16159-0.64409-0.16077-0.63337 0.0016-1.0559 0.334-1.2547 0.98698-0.0369 0.12133-0.0947 0.87024-0.12829 1.6642-0.0336 0.79399-0.0943 2.1314-0.13482 2.9721-0.10548 2.1879 0.0511 4.5224 0.34144 5.0915 0.15346 0.3008 0.54426 0.65024 0.78703 0.70373 0.10088 0.0222 0.21364 0.0512 0.25057 0.0643 0.11215 0.0399 0.5937-0.0461 0.77217-0.13793z" fill="#070707"/></g></svg>
