<?xml version="1.0" encoding="UTF-8" standalone="no"?>
<!-- Created with Inkscape (http://www.inkscape.org/) -->

<svg
   width="171.89235mm"
   height="165.5807mm"
   viewBox="0 0 171.89235 165.5807"
   version="1.1"
   id="svg1"
   xmlspace="preserve"
   inkscapeversion="1.3 (0e150ed6c4, 2023-07-21)"
   sodipodidocname="TMB_Logo.svg"
   inkscapeexport-filename="TMB_Logo.svg"
   inkscapeexport-xdpi="96"
   inkscapeexport-ydpi="96"
   xmlnsinkscape="http://www.inkscape.org/namespaces/inkscape"
   xmlnssodipodi="http://sodipodi.sourceforge.net/DTD/sodipodi-0.dtd"
   xmlns="http://www.w3.org/2000/svg"
   xmlns:svg="http://www.w3.org/2000/svg"><sodipodi:namedview
     id="namedview1"
     pagecolor="#ffffff"
     bordercolor="#000000"
     borderopacity="0.25"
     inkscapeshowpageshadow="2"
     inkscapepageopacity="0.0"
     inkscapepagecheckerboard="0"
     inkscapedeskcolor="#d1d1d1"
     inkscapedocument-units="mm"
     inkscapezoom="0.26173516"
     inkscapecx="34.385904"
     inkscapecy="953.25367"
     inkscapewindow-width="1920"
     inkscapewindow-height="1027"
     inkscapewindow-x="-8"
     inkscapewindow-y="22"
     inkscapewindow-maximized="1"
     inkscapecurrent-layer="layer1" /><defs
     id="defs1" /><g
     inkscapelabel="Слой 1"
     inkscapegroupmode="layer"
     id="layer1"
     transform="translate(-19.677668,-62.024676)"><rect
       style="fill:#000000;stroke:none;stroke-width:2.2;stroke-dasharray:none;stroke-opacity:1"
       id="rect85"
       width="171.89233"
       height="165.5807"
       x="19.67767"
       y="62.024677" /><g
       id="g83"
       transform="translate(-4.0568304,17.13592)"
       inkscape:export-filename="TMB_Logo.webp"
       inkscape:export-xdpi="96"
       inkscape:export-ydpi="96"><path
         style="fill:#07f2f4"
         d="m 63.165166,135.88813 0.01729,-35.30222 0.154933,-0.705023 c 0.518577,-2.359795 1.543524,-4.277802 3.138072,-5.87235 1.811998,-1.811998 4.192226,-2.961885 6.74524,-3.258622 0.460455,-0.05352 11.927817,-0.06861 41.227309,-0.05426 l 40.58943,0.01988 v 35.184215 35.18422 l -0.15454,0.76288 c -0.48734,2.40573 -1.45085,4.25517 -3.09523,5.94122 -1.58954,1.62981 -3.43671,2.64858 -5.7813,3.18854 l -0.77217,0.17783 -41.04316,0.018 -41.043161,0.0179 z m 79.867544,33.89202 c 4.91835,-0.3032 8.84513,-3.52545 10.08233,-8.27339 0.32673,-1.2539 0.31091,0.55365 0.31091,-35.50629 V 92.125587 H 113.94442 74.46289 l -0.755749,0.153174 c -1.006482,0.203993 -1.839813,0.482003 -2.740917,0.914405 -3.107428,1.491126 -5.244182,4.240757 -6.024041,7.751894 l -0.143936,0.64804 -0.01952,34.08859 -0.01952,34.08859 0.185233,0.0278 c 0.401765,0.0604 77.10306,0.0428 78.08827,-0.018 z m -64.910393,-7.76536 c -1.20257,-0.17559 -1.745275,-0.52988 -1.940076,-1.26654 -0.04568,-0.17274 -0.08334,-2.20945 -0.105548,-5.70737 -0.01899,-2.99133 -0.0616,-6.23949 -0.0947,-7.21813 -0.102199,-3.02184 0.04347,-5.41961 0.435987,-7.17672 0.776393,-3.47552 2.616635,-5.6654 5.631696,-6.70171 0.768457,-0.26412 1.669404,-0.4213 2.808435,-0.48995 0.589702,-0.0355 1.086983,-0.0794 1.105068,-0.0975 0.01809,-0.0181 -0.135096,-0.40407 -0.340403,-0.85775 -0.468582,-1.03543 -0.681703,-1.72027 -0.815256,-2.6197 -0.160185,-1.07879 -0.114806,-2.82365 0.102628,-3.94609 0.433677,-2.23875 1.800334,-4.05446 3.718939,-4.94091 2.689932,-1.24282 5.968008,-0.67301 8.038279,1.39726 1.306601,1.3066 1.870755,2.77068 1.980928,5.14086 0.02281,0.4907 0.07048,0.91011 0.105928,0.93202 0.07713,0.0477 6.695228,-6.54487 8.314488,-8.28238 1.21499,-1.30372 1.71632,-1.73216 2.40946,-2.05914 0.38938,-0.18369 0.51729,-0.20831 1.21095,-0.23304 0.44487,-0.0159 0.93549,0.006 1.15059,0.0502 0.49896,0.10358 1.25308,0.47168 1.83359,0.89499 0.2666,0.19441 2.51315,2.37825 5.15458,5.01069 2.57511,2.56635 4.69322,4.65289 4.70691,4.63675 0.0137,-0.0161 0.0595,-0.54301 0.10177,-1.17082 0.11479,-1.70464 0.38429,-2.69348 1.02894,-3.77536 0.28959,-0.48601 1.24455,-1.49385 1.77229,-1.87045 0.80395,-0.57368 1.95241,-1.04945 2.98662,-1.23725 0.55018,-0.0999 1.84574,-0.10159 2.41427,-0.003 1.44673,0.25053 2.81693,0.9837 3.78245,2.02389 1.42473,1.53493 2.01056,3.50765 1.90253,6.40664 -0.057,1.52884 -0.27484,2.41743 -0.92642,3.77847 -0.18448,0.38535 -0.32131,0.71474 -0.30407,0.73198 0.0172,0.0172 0.51015,0.0586 1.09535,0.0919 1.27513,0.0725 1.94823,0.19241 2.85776,0.509 2.87709,1.00145 4.64592,3.00221 5.49198,6.21209 0.45861,1.73992 0.65001,4.06211 0.57203,6.94017 -0.028,1.03404 -0.0701,4.50882 -0.0935,7.72173 l -0.0426,5.84165 -0.1713,0.33573 c -0.22044,0.43206 -0.63764,0.71735 -1.27876,0.87447 -0.43641,0.10694 -0.66067,0.11332 -2.17056,0.0617 -1.71921,-0.0588 -14.47974,-0.0767 -17.69807,-0.0248 -1.63251,0.0263 -1.81253,0.0178 -2.18142,-0.10307 -0.51123,-0.16748 -0.89047,-0.53551 -1.07513,-1.04332 -0.15253,-0.41946 -0.14853,0.16391 -0.0624,-9.09821 0.0264,-2.84361 0.0473,-5.59322 0.0463,-6.11024 -0.003,-1.73742 -0.22534,-2.25083 -1.93168,-4.46517 -0.86311,-1.12006 -1.57791,-2.15825 -4.88289,-7.09196 -2.55614,-3.81583 -2.86629,-4.31655 -3.24539,-5.23953 -0.13419,-0.32671 -0.26617,-0.61766 -0.29329,-0.64657 -0.0965,-0.10286 -0.26789,0.0346 -0.34504,0.27672 -0.15393,0.48305 -0.48811,1.19696 -0.88516,1.89092 -0.38583,0.67436 -0.66182,1.0789 -2.81722,4.12945 -0.52187,0.7386 -1.85489,2.70182 -2.96227,4.36272 -1.10738,1.6609 -2.20949,3.29082 -2.44914,3.62204 -0.81086,1.12072 -0.97765,1.52566 -1.12234,2.72494 -0.0558,0.46228 -0.28519,0.80749 -0.702788,1.05754 -0.674762,0.40403 -1.212629,0.24575 -1.56615,-0.46086 -0.253126,-0.50595 -0.376879,-1.05826 -0.379766,-1.69489 -0.0059,-1.30015 0.527195,-2.32679 2.550234,-4.91131 0.31798,-0.40623 0.86257,-1.14651 1.21021,-1.64507 0.34764,-0.49855 1.38849,-1.964 2.31302,-3.25655 3.24033,-4.53021 4.44411,-6.70302 5.19486,-9.37669 0.34703,-1.23588 0.58577,-3.01165 0.4049,-3.01165 -0.12552,0 -10.228599,10.1298 -11.263944,11.29374 -1.419197,1.59547 -2.266049,2.35161 -3.063917,2.73571 -0.725821,0.34942 -0.970119,0.36682 -3.94889,0.28119 -5.014078,-0.14413 -6.191023,-0.0997 -7.735277,0.29203 -2.354529,0.59728 -4.102941,2.31335 -4.601615,4.51649 -0.19525,0.86262 -0.2077,1.46458 -0.200283,9.68406 0.0059,6.50028 0.02612,8.43633 0.08866,8.47608 0.04458,0.0283 0.870515,0.052 1.835406,0.0525 1.470476,8.6e-4 1.767736,-0.0151 1.837095,-0.0987 0.06478,-0.078 0.07812,-1.76573 0.06145,-7.77209 -0.02404,-8.65951 -0.04984,-8.18674 0.475452,-8.71203 0.292747,-0.29275 0.557774,-0.37139 1.081844,-0.32104 0.458077,0.044 0.781857,0.31247 1.000766,0.82974 l 0.167863,0.39666 0.01842,7.78592 c 0.01433,6.05653 0.0367,7.79754 0.100719,7.83821 0.04526,0.0288 2.838394,0.0527 6.206957,0.0533 5.765395,9.7e-4 6.128272,-0.006 6.186228,-0.11648 0.03742,-0.0714 0.03629,-0.53604 -0.0029,-1.18485 -0.110125,-1.82332 0.101842,-2.67346 0.769502,-3.08624 0.712347,-0.44041 1.558704,-0.14587 1.902344,0.66203 0.13282,0.31226 0.25556,2.70582 0.21176,4.12944 -0.0693,2.25104 -0.851878,2.64864 -4.704797,2.39022 -2.22745,-0.1494 -12.788186,-0.15428 -14.985543,-0.007 -1.375255,0.0922 -2.592928,0.11599 -2.987973,0.0583 z m 58.674443,-2.93231 c 0.0506,-0.061 0.0789,-1.61648 0.0924,-5.08627 0.0215,-5.4918 0.005,-5.263 0.43199,-5.82346 0.56304,-0.73818 1.74133,-0.47845 2.07188,0.45669 0.19302,0.54608 0.23099,1.52791 0.23274,6.01817 0.002,3.98684 0.0126,4.44537 0.10794,4.48196 0.17527,0.0673 3.4773,0.0443 3.58679,-0.025 0.0887,-0.0561 0.10064,-1.09334 0.10002,-8.67752 l -7e-4,-8.61383 -0.15497,-0.70503 c -0.0852,-0.38777 -0.24352,-0.92632 -0.35176,-1.19679 -0.68771,-1.71845 -2.19216,-2.97596 -4.18388,-3.49715 -1.47595,-0.38622 -2.81662,-0.43617 -7.59561,-0.28301 -3.22124,0.10324 -3.35842,0.0934 -4.13712,-0.29818 -0.83149,-0.41808 -1.63214,-1.15097 -3.33302,-3.05091 -0.44632,-0.49855 -3.0966,-3.18773 -5.88952,-5.97594 -4.78274,-4.77469 -5.08371,-5.06191 -5.17562,-4.93915 -0.10169,0.13583 -0.12099,0.35713 -0.0999,1.14543 0.0407,1.52124 0.93881,3.85587 2.45385,6.37882 1.06284,1.76991 4.75635,7.19467 8.02329,11.78403 0.32861,0.46162 0.73596,1.11125 0.90523,1.44362 0.43989,0.86375 0.52198,1.3384 0.47596,2.75214 -0.0205,0.62827 -0.0549,3.94644 -0.0765,7.37373 -0.0303,4.79459 -0.0208,6.2538 0.0412,6.32846 0.11461,0.1381 12.36084,0.14711 12.47531,0.009 z m 0.90935,-14.34259 c -0.93856,-0.42622 -0.9844,-1.90812 -0.0727,-2.34948 0.88185,-0.42689 1.74897,0.0791 1.84535,1.07684 0.0412,0.42638 -0.0793,0.74457 -0.38739,1.0229 -0.41952,0.37901 -0.90707,0.4669 -1.38529,0.24974 z M 92.691165,133.30935 c 0.587049,-0.13808 1.379434,-0.58076 1.834805,-1.02506 1.513339,-1.47656 1.952382,-4.25651 1.029673,-6.51974 -0.534488,-1.311 -1.479536,-2.24717 -2.624965,-2.6003 -0.700513,-0.21597 -1.754038,-0.19891 -2.492435,0.0404 -1.399941,0.45362 -2.456815,1.65955 -2.891651,3.29946 -0.194997,0.7354 -0.179145,2.62072 0.02842,3.37988 0.533966,1.95298 1.784408,3.2403 3.405663,3.50611 0.390207,0.064 1.272312,0.0224 1.710493,-0.0807 z m 39.141475,-0.0928 c 1.42375,-0.44976 2.4385,-1.62085 2.86652,-3.30816 0.51513,-2.03072 0.011,-4.34371 -1.23452,-5.66402 -0.81767,-0.86678 -1.61062,-1.21671 -2.76743,-1.22128 -0.82542,-0.003 -1.26821,0.0884 -1.91365,0.39603 -1.74177,0.83023 -2.72785,2.90646 -2.51789,5.3015 0.22576,2.57526 1.59532,4.31567 3.69294,4.69293 0.37309,0.0671 1.36961,-0.0376 1.87403,-0.197 z M 98.953715,152.063 c -0.246087,-0.0709 -0.591617,-0.3841 -0.71832,-0.65111 -0.149582,-0.31522 -0.159678,-0.93738 -0.01956,-1.20548 0.136776,-0.26171 0.43734,-0.54359 0.675588,-0.63361 0.267119,-0.10093 0.825342,-0.0886 1.039717,0.0229 0.6232,0.32425 0.87405,1.2055 0.52891,1.85816 -0.25989,0.49146 -0.948395,0.76987 -1.506333,0.60912 z m 20.320095,-40.66888 c -0.56938,-0.17922 -1.0002,-0.85694 -0.90758,-1.4277 0.16506,-1.01715 2.5753,-3.65167 3.98438,-4.35514 0.43156,-0.21546 0.52624,-0.23803 0.88864,-0.21181 0.32446,0.0235 0.45527,0.0695 0.65372,0.23014 0.54754,0.44316 0.67305,1.1142 0.33188,1.7743 -0.63859,1.2355 -2.76398,3.37732 -3.83447,3.86411 -0.45882,0.20864 -0.7499,0.24151 -1.11657,0.1261 z m -17.382,-0.31563 c -0.51404,-0.18062 -0.98659,-0.48466 -1.67864,-1.08002 -0.763043,-0.65643 -1.701655,-1.77107 -2.150763,-2.55411 -0.530833,-0.92553 0.0049,-2.06155 0.969494,-2.05595 0.541311,0.003 1.358709,0.44706 2.228479,1.21026 0.94219,0.82676 2.2036,2.37061 2.3765,2.90863 0.19102,0.5944 -0.0752,1.31398 -0.57355,1.55048 -0.39048,0.1853 -0.68816,0.19056 -1.17152,0.0207 z m 8.81236,-3.06291 c -0.23043,-0.0664 -0.6064,-0.39216 -0.73138,-0.63372 -0.34537,-0.66755 -0.46869,-2.15283 -0.3627,-4.36869 0.0409,-0.8549 0.10191,-2.204 0.13559,-2.99799 0.0337,-0.793997 0.0915,-1.542902 0.12841,-1.664235 0.1988,-0.652982 0.62136,-0.985372 1.25473,-0.986978 0.46385,-0.0012 0.76885,0.159662 1.03255,0.544508 0.44034,0.642634 0.52646,1.843485 0.4159,5.799705 -0.0449,1.60645 -0.11235,3.07723 -0.1499,3.26838 -0.16201,0.82464 -0.90739,1.27407 -1.7232,1.03902 z"
         id="path85" /><path
         style="fill:#b9138c"
         d="m 63.232813,172.82353 c -0.06055,-0.0244 -0.08393,-0.25662 -0.08393,-0.83353 v -0.79966 l 41.042657,-0.0179 41.04266,-0.018 0.77217,-0.17783 c 2.34459,-0.53996 4.19176,-1.55873 5.7813,-3.18854 1.61316,-1.65404 2.58581,-3.49104 3.04724,-5.75519 0.0893,-0.43828 0.18179,-0.81597 0.20549,-0.83932 0.0656,-0.0646 -0.0331,1.2889 -0.14375,1.97192 -0.6035,3.72442 -2.93543,6.87954 -6.30518,8.53099 -1.28507,0.62979 -2.58136,0.97881 -4.09045,1.10135 -0.87855,0.0713 -81.092232,0.0967 -81.268205,0.0257 z m 14.43635,-9.58696 c -1.144034,-0.26228 -1.566361,-0.81511 -1.556478,-2.03744 0.0046,-0.57212 0.0068,-0.57964 0.09588,-0.33721 0.39599,1.07731 1.48559,1.32625 4.822475,1.1018 2.311814,-0.15549 12.747786,-0.1557 15.064795,-3e-4 2.366409,0.15871 3.417046,0.0524 4.018745,-0.4065 0.26217,-0.19996 0.40275,-0.4381 0.57651,-0.97654 l 0.11917,-0.3693 0.004,0.55065 c 0.004,0.65382 -0.0912,1.15115 -0.30025,1.56443 -0.42367,0.83744 -1.210125,1.06618 -3.321991,0.96622 -1.470153,-0.0696 -15.331501,-0.075 -17.558537,-0.007 -1.232714,0.0377 -1.629012,0.0278 -1.963927,-0.0489 z m 45.760197,0.0294 c -1.42025,-0.17478 -1.91534,-0.75612 -1.97264,-2.31629 -0.0256,-0.69685 -0.0221,-0.72152 0.0614,-0.43644 0.22358,0.76346 0.52955,1.10585 1.17874,1.31904 0.34119,0.11204 0.55848,0.1217 2.15873,0.0959 3.21833,-0.0518 15.97886,-0.034 17.69807,0.0248 1.50989,0.0516 1.73415,0.0452 2.17056,-0.0617 0.61037,-0.14958 1.06052,-0.44588 1.24737,-0.82105 0.22701,-0.45579 0.25515,-0.42403 0.2204,0.24873 -0.049,0.94919 -0.25077,1.33614 -0.85703,1.64386 -0.55646,0.28245 -1.00051,0.33951 -2.38367,0.30632 -2.00782,-0.0482 -17.15493,-0.0415 -18.16284,0.008 -0.49856,0.0245 -1.11013,0.0195 -1.35905,-0.0112 z M 97.940829,158.8346 c 0,-0.0923 0.01524,-0.13009 0.03387,-0.0839 0.01863,0.0462 0.01863,0.1217 0,0.16786 -0.01863,0.0462 -0.03387,0.008 -0.03387,-0.0839 z m 1.028038,-5.57471 c -0.26067,-0.0791 -0.616602,-0.42682 -0.74059,-0.72357 -0.09683,-0.23176 -0.130116,-0.78799 -0.05834,-0.97504 0.02889,-0.0753 0.108133,-0.0299 0.323027,0.18501 0.277331,0.27733 0.512033,0.37377 0.909672,0.37377 0.258527,0 0.846244,-0.31133 0.983674,-0.52107 0.11039,-0.16848 0.12026,-0.17123 0.16877,-0.0472 0.0768,0.19644 0.0709,0.73467 -0.0105,0.94994 -0.0858,0.22705 -0.36877,0.53716 -0.600924,0.65854 -0.23455,0.12262 -0.731521,0.17339 -0.974839,0.0996 z M 98.8252,147.42782 c -0.42498,-0.26709 -0.726111,-1.03184 -0.807114,-2.04972 -0.03141,-0.3947 -0.02226,-0.51863 0.03566,-0.48284 0.04286,0.0265 0.07863,0.11436 0.0795,0.19527 8.72e-4,0.0809 0.09907,0.34352 0.218223,0.58356 0.382034,0.76966 0.897102,0.93779 1.594209,0.52038 0.417602,-0.25005 0.647012,-0.59526 0.702792,-1.05754 0.14469,-1.19928 0.31148,-1.60422 1.12234,-2.72494 0.23965,-0.33122 1.34176,-1.96114 2.44914,-3.62204 1.10738,-1.6609 2.4404,-3.62412 2.96227,-4.36272 2.1554,-3.05055 2.43139,-3.45509 2.81722,-4.12945 0.39705,-0.69396 0.73123,-1.40787 0.88516,-1.89092 0.0771,-0.24212 0.24855,-0.37958 0.34504,-0.27672 0.0271,0.0289 0.1591,0.31986 0.29329,0.64657 0.3791,0.92298 0.68925,1.4237 3.24539,5.23953 3.30498,4.93371 4.01978,5.9719 4.88289,7.09196 1.57638,2.04568 1.84874,2.61015 1.94392,4.02873 l 0.0383,0.57073 -0.12613,-0.42293 c -0.26896,-0.9019 -0.64754,-1.51405 -2.2155,-3.58239 -0.73229,-0.96599 -6.6766,-9.87768 -7.18455,-10.77106 -0.18939,-0.3331 -0.4534,-0.8763 -0.58669,-1.20709 -0.34371,-0.85302 -0.43638,-0.87256 -0.69769,-0.14714 -0.39672,1.10138 -1.15979,2.37219 -2.85186,4.74946 -1.13532,1.59507 -2.47998,3.58254 -4.24754,6.2781 -0.77491,1.18176 -1.61259,2.4357 -1.86151,2.78654 -0.88733,1.25065 -1.07686,1.66526 -1.17615,2.57291 -0.081,0.74001 -0.25284,1.07458 -0.691232,1.34545 -0.417436,0.25792 -0.873777,0.30409 -1.16938,0.11831 z m 38.95585,-1.63298 c -0.51279,-0.17842 -0.90453,-0.87987 -0.80065,-1.43362 l 0.0461,-0.24574 0.24299,0.27546 c 0.54186,0.61429 1.28567,0.62744 1.87987,0.0332 0.16194,-0.16193 0.30556,-0.29442 0.31917,-0.29442 0.0136,0 0.0241,0.14352 0.0233,0.31894 -0.003,0.60719 -0.43644,1.20274 -0.98709,1.35565 -0.30577,0.0849 -0.45803,0.0829 -0.72365,-0.01 z m -58.885311,-3.51159 c 0.112255,-2.91471 1.90973,-5.11877 4.765221,-5.84313 1.544254,-0.39173 2.721199,-0.43616 7.735277,-0.29203 2.978771,0.0856 3.223069,0.0682 3.94889,-0.28119 0.797868,-0.3841 1.64472,-1.14024 3.063917,-2.73571 1.035662,-1.1643 11.138446,-11.29374 11.264016,-11.29374 0.0733,0 0.0857,0.0855 0.0573,0.39785 l -0.0361,0.39786 -3.68878,3.7148 c -5.31969,5.35723 -6.580356,6.65508 -7.791396,8.02125 -1.493578,1.68489 -2.345136,2.38152 -3.326329,2.72113 -0.525121,0.18176 -1.168754,0.19004 -4.914335,0.0633 -1.51413,-0.0513 -3.167768,-0.0734 -3.674752,-0.0492 -1.58845,0.0758 -3.065544,0.40181 -4.029322,0.88926 -1.221359,0.61773 -2.27041,1.69154 -2.80556,2.87179 -0.176271,0.38876 -0.488965,1.44029 -0.561382,1.88781 -0.01793,0.11079 -0.02096,-0.10071 -0.0067,-0.47001 z M 143.26505,142.12 c -0.52027,-2.52217 -2.33246,-4.23973 -5.06317,-4.79879 -1.32043,-0.27033 -3.64698,-0.30128 -8.04184,-0.107 -1.69907,0.0751 -2.36942,0.0217 -2.93213,-0.23348 -0.89231,-0.40469 -1.80558,-1.21373 -3.29936,-2.9228 -0.50031,-0.57242 -2.18092,-2.32485 -3.73468,-3.89429 -7.50436,-7.58007 -7.47475,-7.55091 -7.57897,-7.46441 -0.0776,0.0644 -0.10522,0.0636 -0.13058,-0.004 -0.0517,-0.13775 0.0525,-0.78643 0.14052,-0.87444 0.0627,-0.0627 1.208,1.04561 5.15388,4.98715 2.79032,2.78724 5.43847,5.47563 5.88479,5.97418 1.70088,1.89994 2.50153,2.63283 3.33302,3.05091 0.7787,0.39153 0.91588,0.40142 4.13712,0.29818 4.77899,-0.15316 6.11966,-0.10321 7.59561,0.28301 1.99172,0.52119 3.49617,1.7787 4.18388,3.49715 0.25266,0.63136 0.48637,1.77906 0.46086,2.26323 l -0.0199,0.37719 z m -17.06093,-13.97264 c -0.003,-0.0933 0.0256,-0.42566 0.0639,-0.7386 0.23502,-1.92229 1.11874,-3.32389 2.51553,-3.98969 0.64544,-0.30765 1.08823,-0.39929 1.91365,-0.39603 1.15681,0.005 1.94976,0.3545 2.76743,1.22128 0.71926,0.76245 1.23666,1.95472 1.38861,3.19978 0.10779,0.88331 0.0867,0.94684 -0.0892,0.26858 -0.63382,-2.44406 -2.0955,-3.79688 -4.09774,-3.79255 -2.19084,0.005 -3.78397,1.42053 -4.33315,3.85084 -0.0679,0.30031 -0.12593,0.46969 -0.12905,0.37639 z m -30.221112,-0.0646 c 0,-0.19902 -0.394326,-1.39538 -0.586749,-1.78015 -0.45925,-0.91832 -1.150139,-1.63795 -1.931205,-2.01154 -0.574689,-0.27488 -1.021669,-0.37249 -1.698728,-0.37096 -1.299934,0.003 -2.401485,0.51553 -3.222747,1.49968 -0.361071,0.43269 -0.765412,1.24703 -0.988439,1.99072 l -0.17116,0.57073 0.03344,-0.57073 c 0.06539,-1.116 0.557106,-2.30611 1.267848,-3.06857 0.848114,-0.90983 1.767763,-1.30943 3.034004,-1.3183 0.578842,-0.004 0.840867,0.0263 1.211406,0.14059 1.703633,0.52523 2.868112,2.24982 3.082527,4.56522 0.02479,0.26774 0.02814,0.4868 0.0074,0.4868 -0.0207,0 -0.03764,-0.0601 -0.03764,-0.13349 z m 23.066452,-16.00033 c -0.44204,-0.25037 -0.76883,-0.88648 -0.66596,-1.29635 0.041,-0.1635 0.0506,-0.16803 0.11147,-0.0529 0.15981,0.30224 0.49574,0.57141 0.83689,0.67059 0.31896,0.0927 0.38908,0.0924 0.7178,-0.003 0.58237,-0.1693 1.33483,-0.72273 2.32879,-1.71282 0.91997,-0.91639 1.51221,-1.64351 1.82508,-2.24072 l 0.1694,-0.32335 0.0452,0.20595 c 0.0982,0.44703 -0.28704,1.17955 -1.18517,2.25368 -0.9207,1.10111 -2.15885,2.1753 -2.90975,2.52442 -0.38074,0.17702 -0.93596,0.16595 -1.27378,-0.0254 z m -16.8647,-0.12059 c -0.92199,-0.17373 -2.46004,-1.44631 -3.604994,-2.98276 -0.519068,-0.69656 -0.715195,-1.11849 -0.716029,-1.5404 l -6.56e-4,-0.33178 0.239939,0.39893 c 0.983735,1.63556 2.71986,3.24451 3.88565,3.601 0.40534,0.12396 0.50517,0.13212 0.76509,0.0626 0.36171,-0.0967 0.62182,-0.27306 0.74651,-0.50605 0.14937,-0.27911 0.22367,-0.20457 0.19083,0.19144 -0.0645,0.77717 -0.71594,1.25595 -1.50634,1.10702 z m 8.80526,-3.11497 c -0.0369,-0.0131 -0.14969,-0.0421 -0.25057,-0.0643 -0.24288,-0.0535 -0.63373,-0.4031 -0.78663,-0.70357 -0.0675,-0.13275 -0.15641,-0.45866 -0.19748,-0.72425 -0.0988,-0.63875 -0.0864,-0.87913 0.0245,-0.4763 0.19723,0.71639 0.60168,1.11206 1.19986,1.1738 0.70482,0.0727 1.2014,-0.2522 1.42817,-0.93454 l 0.0955,-0.28726 -0.0302,0.47781 c -0.0451,0.71413 -0.28139,1.1796 -0.71097,1.40071 -0.17847,0.0918 -0.66002,0.17787 -0.77217,0.13793 z"
         id="path84" /><path
         style="fill:#070707"
         d="M 23.734499,127.67911 V 44.888756 h 85.946181 85.94618 v 82.790354 82.79035 H 109.68068 23.734499 Z m 120.766521,45.11871 c 1.50909,-0.12254 2.80538,-0.47156 4.09045,-1.10135 3.68322,-1.80508 6.09861,-5.38452 6.41364,-9.5046 0.0468,-0.61139 0.0633,-12.39227 0.0508,-36.1914 l -0.0185,-35.284938 -40.58943,-0.01988 c -29.299494,-0.01435 -40.766856,7.44e-4 -41.227311,0.05426 -2.553014,0.296737 -4.933242,1.446624 -6.74524,3.258622 -1.594548,1.594548 -2.619495,3.512555 -3.138072,5.87235 l -0.154933,0.705026 -0.01728,36.08642 c -0.01385,28.92304 -5.2e-4,36.09706 0.06714,36.14002 0.132243,0.0839 80.232206,0.0696 81.268696,-0.0145 z m -79.556581,-2.99969 -0.185233,-0.0278 0.01952,-34.08859 0.01952,-34.08859 0.143936,-0.64804 c 1.004329,-4.521763 4.275839,-7.756448 8.764958,-8.666299 l 0.755749,-0.153174 h 39.481531 39.48153 v 33.874883 c 0,27.61939 -0.0163,33.97776 -0.0881,34.43196 -0.50225,3.17722 -2.25084,5.88754 -4.91427,7.61716 -1.61372,1.04795 -3.34779,1.60461 -5.3909,1.73056 -0.98521,0.0607 -77.686507,0.0784 -78.088272,0.018 z m 23.618997,-6.56221 c 4.0623,-0.001 7.944986,0.0241 8.628191,0.0565 2.111866,0.1 2.898323,-0.12878 3.321993,-0.96622 0.25572,-0.50545 0.30415,-0.92197 0.299,-2.57161 -0.008,-2.44763 -0.0877,-3.99363 -0.22322,-4.31079 -0.2361,-0.55254 -0.672794,-0.85851 -1.22528,-0.85851 -0.654979,0 -1.148148,0.44004 -1.376037,1.22781 -0.05992,0.20712 -0.08804,0.77728 -0.08942,1.81292 l -0.002,1.51078 -6.076664,0.0185 c -3.342165,0.0102 -6.14392,0.002 -6.226122,-0.0177 l -0.149458,-0.0361 -0.01841,-7.80479 -0.01841,-7.80479 -0.167863,-0.39666 c -0.218909,-0.51727 -0.542689,-0.78572 -1.000766,-0.82974 -0.52407,-0.0503 -0.789097,0.0283 -1.081844,0.32104 -0.525292,0.52529 -0.499491,0.0525 -0.475452,8.71203 0.01667,6.00636 0.0033,7.69404 -0.06145,7.77209 -0.06936,0.0836 -0.366619,0.0995 -1.837095,0.0987 -0.964891,-5.7e-4 -1.790458,-0.024 -1.834595,-0.052 -0.104734,-0.0666 -0.131431,-15.82102 -0.02782,-16.41426 0.260924,-1.49387 0.810493,-2.60858 1.748527,-3.54662 1.001234,-1.00123 2.218975,-1.58251 3.926969,-1.87451 1.183905,-0.2024 2.359328,-0.23044 5.377276,-0.12828 3.745581,0.12679 4.389214,0.11851 4.914335,-0.0633 0.981193,-0.33961 1.832751,-1.03624 3.326329,-2.72113 1.206603,-1.36117 2.45611,-2.64773 7.75745,-7.98752 2.01002,-2.0246 3.67042,-3.66524 3.68978,-3.64588 0.0597,0.0597 -0.18225,1.36171 -0.3915,2.10692 -0.75272,2.68068 -1.95376,4.84927 -5.19665,9.38306 -0.92453,1.29255 -1.96538,2.758 -2.31302,3.25655 -0.34764,0.49856 -0.89223,1.23884 -1.21021,1.64507 -1.224068,1.56379 -1.662171,2.20447 -2.079964,3.04174 -0.394364,0.79031 -0.471726,1.17826 -0.465873,2.33624 0.0059,1.16195 0.117372,1.85971 0.379584,2.37547 0.35818,0.70453 0.921657,0.85447 1.610829,0.42865 0.438394,-0.27087 0.610274,-0.60544 0.691234,-1.34545 0.0993,-0.90765 0.28882,-1.32226 1.17615,-2.57291 0.24892,-0.35084 1.0866,-1.60478 1.86151,-2.78654 1.76756,-2.69556 3.11222,-4.68303 4.24754,-6.2781 1.69207,-2.37727 2.45514,-3.64808 2.85186,-4.74946 0.26131,-0.72542 0.35398,-0.70588 0.69769,0.14714 0.13329,0.33079 0.3973,0.87399 0.58669,1.20709 0.50795,0.89338 6.45226,9.80507 7.18455,10.77106 1.61674,2.13268 2.03019,2.81802 2.23552,3.70559 0.086,0.37162 0.0916,0.68543 0.0367,2.04794 -0.057,1.41526 -0.10033,6.97454 -0.0969,12.41949 0.001,1.74651 0.007,1.82768 0.15997,2.2158 0.40764,1.03409 1.3265,1.32809 3.66482,1.1726 0.95515,-0.0635 10.89464,-0.0538 18.12927,0.0176 1.50689,0.0149 2.29088,-0.29989 2.63226,-1.05687 0.11249,-0.24945 0.12173,-0.63096 0.13583,-5.60573 0.008,-2.93593 0.0461,-6.27474 0.084,-7.41957 0.12075,-3.6498 0.0711,-5.44197 -0.20366,-7.35243 -0.46148,-3.2087 -1.72693,-5.51974 -3.75631,-6.86004 -0.73742,-0.48703 -1.22677,-0.72881 -2.06709,-1.0213 -0.90953,-0.31659 -1.58263,-0.43647 -2.85776,-0.509 -0.5852,-0.0333 -1.07821,-0.0747 -1.09559,-0.0921 -0.0174,-0.0174 0.11982,-0.34433 0.30489,-0.72656 0.64166,-1.32523 0.86883,-2.25361 0.92584,-3.78365 0.10803,-2.89899 -0.4778,-4.87171 -1.90253,-6.40664 -0.96552,-1.04019 -2.33572,-1.77336 -3.78245,-2.02389 -0.56853,-0.0985 -1.86409,-0.0968 -2.41427,0.003 -1.03421,0.1878 -2.18267,0.66357 -2.98662,1.23725 -0.52774,0.3766 -1.4827,1.38444 -1.77229,1.87045 -0.64465,1.08188 -0.91415,2.07072 -1.02894,3.77536 -0.0423,0.62781 -0.0881,1.15468 -0.10177,1.17082 -0.0137,0.0161 -2.1318,-2.0704 -4.70691,-4.63675 -2.64143,-2.63244 -4.88798,-4.81628 -5.15458,-5.01069 -0.58051,-0.42331 -1.33463,-0.79141 -1.83359,-0.89499 -0.2151,-0.0446 -0.70572,-0.0661 -1.15059,-0.0502 -0.69366,0.0247 -0.82157,0.0493 -1.21095,0.23304 -0.69314,0.32698 -1.19447,0.75542 -2.40946,2.05914 -1.61926,1.73751 -8.237363,8.33005 -8.314494,8.28238 -0.03545,-0.0219 -0.08312,-0.44132 -0.105928,-0.93202 -0.110173,-2.37018 -0.674327,-3.83426 -1.980928,-5.14086 -2.070271,-2.07027 -5.348347,-2.64008 -8.038279,-1.39726 -1.918605,0.88645 -3.285262,2.70216 -3.718939,4.94091 -0.217434,1.12244 -0.262813,2.8673 -0.102628,3.94609 0.133553,0.89943 0.346674,1.58427 0.815256,2.6197 0.205307,0.45368 0.358489,0.83966 0.340403,0.85775 -0.01808,0.0181 -0.515366,0.062 -1.105068,0.0975 -1.139031,0.0686 -2.039978,0.22583 -2.808435,0.48995 -2.573814,0.88465 -4.311242,2.63434 -5.226285,5.26319 -0.710088,2.04003 -0.973477,4.73967 -0.840543,8.61524 0.03357,0.97864 0.07678,4.51385 0.09603,7.85601 0.03751,6.51333 0.03432,6.45462 0.376772,6.91781 0.185254,0.25057 0.700759,0.52245 1.213513,0.64 0.334915,0.0768 0.731213,0.0867 1.963927,0.0489 0.84939,-0.026 4.868046,-0.0483 8.930346,-0.0496 z m 35.758014,-4.16262 c -0.062,-0.0747 -0.0715,-1.53387 -0.0412,-6.32846 0.0216,-3.42729 0.0561,-6.74546 0.0765,-7.37373 0.046,-1.41374 -0.0361,-1.88839 -0.47596,-2.75214 -0.16927,-0.33237 -0.57662,-0.982 -0.90523,-1.44362 -1.72774,-2.42711 -4.67774,-6.68631 -6.13882,-8.86321 -2.11323,-3.14854 -3.11942,-4.94866 -3.75316,-6.71454 -0.511,-1.42391 -0.71967,-2.69011 -0.47657,-2.89186 0.0926,-0.0769 0.40574,0.21366 2.43402,2.25808 6.59619,6.6487 8.05307,8.13945 8.88747,9.09411 1.49378,1.70907 2.40705,2.51811 3.29936,2.9228 0.56271,0.25521 1.23306,0.30858 2.93213,0.23348 2.81885,-0.12462 6.02251,-0.15891 6.81527,-0.073 2.24664,0.24356 3.66141,0.85326 4.8133,2.07432 0.7828,0.82981 1.25375,1.80326 1.53129,3.16519 0.1348,0.6615 0.13724,0.8381 0.11949,8.66773 -0.0159,7.0181 -0.0304,8.00024 -0.11884,8.05613 -0.1095,0.0692 -3.41159,0.0922 -3.58679,0.025 -0.0953,-0.0366 -0.10638,-0.49512 -0.10794,-4.48196 -0.002,-4.49026 -0.0397,-5.47209 -0.23274,-6.01817 -0.33055,-0.93514 -1.50884,-1.19487 -2.07188,-0.45669 -0.42748,0.56046 -0.41051,0.33166 -0.43199,5.82346 -0.0136,3.46979 -0.0418,5.02529 -0.0924,5.08627 -0.11447,0.13793 -12.3607,0.12892 -12.47531,-0.009 z m 14.18617,-13.26976 c 0.34348,-0.0954 0.75234,-0.47662 0.88149,-0.82196 0.0782,-0.20903 0.10028,-0.47908 0.0862,-1.05327 -0.0221,-0.90357 -0.12389,-1.1831 -0.54066,-1.485 -0.33976,-0.24613 -0.85851,-0.26721 -1.30123,-0.0529 -0.48019,0.23246 -0.78032,0.90411 -0.6366,1.42461 0.0442,0.16001 0.0439,0.33037 -8.5e-4,0.50665 -0.14127,0.55656 0.24753,1.28614 0.78506,1.47317 0.26615,0.0926 0.41788,0.0944 0.72657,0.009 z M 90.980672,133.39005 c -0.411439,-0.0675 -0.936098,-0.26521 -1.355116,-0.51077 -1.232158,-0.7221 -2.12076,-2.37831 -2.218405,-4.13476 -0.03133,-0.5636 -0.01315,-0.7277 0.141385,-1.27577 0.64306,-2.28069 2.144531,-3.54395 4.21779,-3.54862 0.677059,-0.002 1.124039,0.0961 1.698728,0.37096 1.070369,0.51196 1.826064,1.49266 2.304762,2.99098 0.269481,0.84347 0.308491,1.1856 0.213703,1.87424 -0.247079,1.79504 -1.13419,3.18292 -2.438522,3.81504 -0.302479,0.14659 -0.686703,0.29869 -0.853832,0.338 -0.438181,0.10306 -1.320286,0.14467 -1.710493,0.0807 z m 38.977938,0.0234 c -1.69165,-0.30425 -2.91004,-1.48447 -3.45906,-3.35073 -0.25761,-0.87566 -0.29611,-1.77275 -0.108,-2.51662 0.18151,-0.71778 0.64176,-1.66326 1.0615,-2.18062 0.4047,-0.49882 1.18181,-1.03312 1.80053,-1.23794 0.64507,-0.21354 1.71593,-0.26693 2.31652,-0.11549 1.64035,0.41362 2.8165,1.84917 3.25528,3.97325 0.0909,0.43998 0.0975,0.62766 0.038,1.07469 -0.34831,2.6177 -1.88584,4.23251 -4.14395,4.35222 -0.32616,0.0173 -0.66855,0.0179 -0.76087,0.001 z m -30.008085,19.74424 c 0.271615,-0.14046 0.586955,-0.53925 0.636895,-0.80544 0.0248,-0.13235 0.0252,-0.38227 8.4e-4,-0.55538 -0.0522,-0.37096 -0.0523,-0.34525 10e-4,-0.8276 0.0938,-0.84673 -0.40311,-1.46794 -1.174338,-1.46794 -0.410051,0 -0.654028,0.0873 -0.903377,0.32321 -0.260658,0.24663 -0.382899,0.50148 -0.38422,0.80106 -0.0056,1.2743 0.01786,1.71229 0.102658,1.91526 0.122283,0.29266 0.47951,0.64037 0.738674,0.71898 0.245088,0.0743 0.739924,0.0229 0.981658,-0.10215 z m 20.372715,-41.04991 c 1.13092,-0.5258 3.28547,-2.69016 3.88114,-3.89882 0.20076,-0.40737 0.21387,-0.47851 0.21097,-1.14519 -0.004,-0.81814 -0.10487,-1.09629 -0.52238,-1.43421 -0.19845,-0.16062 -0.32926,-0.20667 -0.65372,-0.23014 -0.3621,-0.0262 -0.45744,-0.004 -0.88864,0.21119 -0.93429,0.46524 -2.6083,2.05966 -3.46768,3.30281 -0.47134,0.68182 -0.5339,0.89037 -0.50801,1.69346 0.0287,0.89023 0.19359,1.22836 0.7397,1.51691 0.27682,0.14627 0.87667,0.13832 1.20862,-0.016 z m -17.22166,-0.28746 c 0.12989,-0.071 0.31118,-0.2385 0.40287,-0.3723 0.14957,-0.21824 0.16837,-0.31971 0.18282,-0.98681 0.009,-0.41131 -0.0174,-0.84857 -0.0589,-0.97857 -0.23955,-0.75101 -2.10056,-2.80556 -3.20575,-3.53914 -0.83115,-0.55168 -1.439031,-0.67653 -1.957954,-0.40212 -0.471837,0.24952 -0.601774,0.57042 -0.600969,1.48422 7.76e-4,0.88117 0.0819,1.10248 0.716029,1.95345 0.857537,1.15076 2.104044,2.31296 2.925484,2.72762 0.67129,0.33887 1.12502,0.37117 1.59633,0.11365 z m 8.66061,-3.11141 c 0.23949,-0.12327 0.44559,-0.36167 0.5799,-0.67082 0.0961,-0.22107 0.12463,-0.58324 0.16413,-2.08059 0.0263,-0.99711 0.0703,-2.62874 0.0978,-3.62585 0.0522,-1.89476 -0.0271,-3.436084 -0.20306,-3.947152 -0.1231,-0.357541 -0.35193,-0.670822 -0.62803,-0.859807 -0.18656,-0.1277 -0.32234,-0.16159 -0.64409,-0.160774 -0.63337,0.0016 -1.05593,0.333996 -1.25473,0.986978 -0.0369,0.121333 -0.0947,0.870238 -0.12829,1.664235 -0.0336,0.79399 -0.0943,2.13144 -0.13482,2.97211 -0.10548,2.18787 0.0511,4.52238 0.34144,5.09154 0.15346,0.3008 0.54426,0.65024 0.78703,0.70373 0.10088,0.0222 0.21364,0.0512 0.25057,0.0643 0.11215,0.0399 0.5937,-0.0461 0.77217,-0.13793 z"
         id="path83" /></g></g></svg>
